Coordinates
version=1
nRows=5
nColumns=40
inDegrees=yes

Units are S.I. units (second, meters, Newtons, ...)
If the header above contains a line with 'inDegrees', this indicates whether rotational values are in degrees (yes) or radians (no).

endheader
time	pelvis_tilt	pelvis_list	pelvis_rotation	pelvis_tx	pelvis_ty	pelvis_tz	hip_flexion_r	hip_adduction_r	hip_rotation_r	knee_angle_r	knee_angle_r_beta	ankle_angle_r	subtalar_angle_r	mtp_angle_r	hip_flexion_l	hip_adduction_l	hip_rotation_l	knee_angle_l	knee_angle_l_beta	ankle_angle_l	subtalar_angle_l	mtp_angle_l	lumbar_extension	lumbar_bending	lumbar_rotation	arm_flex_r	arm_add_r	arm_rot_r	elbow_flex_r	pro_sup_r	wrist_flex_r	wrist_dev_r	arm_flex_l	arm_add_l	arm_rot_l	elbow_flex_l	pro_sup_l	wrist_flex_l	wrist_dev_l
      2.62000000	      9.85762870	     -6.05428080	      2.64706980	      0.15400081	      0.44520410	     -1.23279273	     79.08553113	    -48.53339834	     19.78108678	    122.77128068	      2.14276307	     36.20489500	     18.63838004	      0.00000000	     95.03890166	    -42.84670651	     36.06702213	    125.99807974	      2.19908134	     36.57439312	     21.96091464	      0.00000000	      0.00000000	      0.00000000	      0.00000000	     44.99991633	    -15.00000006	     44.99991633	     75.00017585	     45.00000026	      0.00000000	      0.00000000	     44.99991633	    -15.00000006	     44.99991633	     75.00017585	     45.00000026	      0.00000000	      0.00000000
      2.62500000	      9.40338009	     -5.39784786	      2.37540054	      0.15395077	      0.44501957	     -1.23164117	     80.65529622	    -48.39218559	     21.06774773	    122.83927056	      2.14394972	     36.00962741	     18.66985127	      0.00000000	     94.68604144	    -43.08525422	     34.98474649	    125.88830196	      2.19716536	     36.50457517	     21.76444226	      0.00000000	      0.00000000	      0.00000000	      0.00000000	     44.99991678	    -15.00000006	     44.99991678	     75.00017585	     45.00000026	      0.00000000	      0.00000000	     44.99991678	    -15.00000006	     44.99991678	     75.00017585	     45.00000026	      0.00000000	      0.00000000
      2.63000000	      9.33364036	     -6.09486338	      2.64778513	      0.15362118	      0.44647171	     -1.23278906	     79.36248574	    -48.51561147	     19.39732324	    122.52548511	      2.13847313	     35.99425118	     18.45489905	      0.00000000	     95.35898934	    -42.72970779	     35.77869176	    125.73322907	      2.19445883	     36.36164387	     21.73833317	      0.00000000	      0.00000000	      0.00000000	      0.00000000	     44.99991728	    -15.00000005	     44.99991728	     75.00017585	     45.00000026	      0.00000000	      0.00000000	     44.99991728	    -15.00000005	     44.99991728	     75.00017585	     45.00000026	      0.00000000	      0.00000000
      2.63500000	      8.93140921	     -5.98782954	      2.56524908	      0.15347099	      0.44683585	     -1.23247847	     79.90877686	    -48.42847457	     19.50565317	    122.45137714	      2.13717970	     35.83443898	     18.30138239	      0.00000000	     95.53734737	    -42.73096995	     35.47295962	    125.59151950	      2.19198553	     36.23890617	     21.63180529	      0.00000000	      0.00000000	      0.00000000	      0.00000000	     44.99991769	    -15.00000004	     44.99991769	     75.00017585	     45.00000026	      0.00000000	      0.00000000	     44.99991769	    -15.00000004	     44.99991769	     75.00017585	     45.00000026	      0.00000000	      0.00000000
      2.64000000	      8.67267883	     -6.04206017	      2.59889180	      0.15324440	      0.44778970	     -1.23256709	     79.91816981	    -48.44988591	     19.17855222	    122.27908324	      2.13417261	     35.73534109	     18.18883819	      0.00000000	     95.68577578	    -42.64321485	     35.31717627	    125.43100990	      2.18918411	     36.08807286	     21.47227727	      0.00000000	      0.00000000	      0.00000000	      0.00000000	     44.99991805	    -15.00000004	     44.99991805	     75.00017585	     45.00000026	      0.00000000	      0.00000000	     44.99991805	    -15.00000004	     44.99991805	     75.00017585	     45.00000026	      0.00000000	      0.00000000
